<mxGraphModel dx="1178" dy="902" grid="1" gridSize="10" guides="1" tooltips="1" connect="1" arrows="1" fold="1" page="1" pageScale="1" pageWidth="850" pageHeight="1100" math="0" shadow="0">
  <root>
    <mxCell id="0" />
    <mxCell id="1" parent="0" />
    <mxCell id="KfnBs1EBN3PCkMCJLKTF-7" value="SharedKernel" style="swimlane;whiteSpace=wrap;html=1;" vertex="1" parent="1">
      <mxGeometry x="260" y="615" width="370" height="400" as="geometry" />
    </mxCell>
    <mxCell id="KfnBs1EBN3PCkMCJLKTF-8" value="Attributes" style="swimlane;fontStyle=0;childLayout=stackLayout;horizontal=1;startSize=30;horizontalStack=0;resizeParent=1;resizeParentMax=0;resizeLast=0;collapsible=1;marginBottom=0;whiteSpace=wrap;html=1;" vertex="1" parent="KfnBs1EBN3PCkMCJLKTF-7">
      <mxGeometry x="20" y="60" width="140" height="180" as="geometry" />
    </mxCell>
    <mxCell id="KfnBs1EBN3PCkMCJLKTF-9" value="DataPrivacyLevel" style="text;strokeColor=none;fillColor=none;align=left;verticalAlign=middle;spacingLeft=4;spacingRight=4;overflow=hidden;points=[[0,0.5],[1,0.5]];portConstraint=eastwest;rotatable=0;whiteSpace=wrap;html=1;" vertex="1" parent="KfnBs1EBN3PCkMCJLKTF-8">
      <mxGeometry y="30" width="140" height="30" as="geometry" />
    </mxCell>
    <mxCell id="KfnBs1EBN3PCkMCJLKTF-10" value="Encrypted" style="text;strokeColor=none;fillColor=none;align=left;verticalAlign=middle;spacingLeft=4;spacingRight=4;overflow=hidden;points=[[0,0.5],[1,0.5]];portConstraint=eastwest;rotatable=0;whiteSpace=wrap;html=1;" vertex="1" parent="KfnBs1EBN3PCkMCJLKTF-8">
      <mxGeometry y="60" width="140" height="30" as="geometry" />
    </mxCell>
    <mxCell id="KfnBs1EBN3PCkMCJLKTF-11" value="Hashed" style="text;strokeColor=none;fillColor=none;align=left;verticalAlign=middle;spacingLeft=4;spacingRight=4;overflow=hidden;points=[[0,0.5],[1,0.5]];portConstraint=eastwest;rotatable=0;whiteSpace=wrap;html=1;" vertex="1" parent="KfnBs1EBN3PCkMCJLKTF-8">
      <mxGeometry y="90" width="140" height="30" as="geometry" />
    </mxCell>
    <mxCell id="KfnBs1EBN3PCkMCJLKTF-13" value="MaskOnResponse" style="text;strokeColor=none;fillColor=none;align=left;verticalAlign=middle;spacingLeft=4;spacingRight=4;overflow=hidden;points=[[0,0.5],[1,0.5]];portConstraint=eastwest;rotatable=0;whiteSpace=wrap;html=1;" vertex="1" parent="KfnBs1EBN3PCkMCJLKTF-8">
      <mxGeometry y="120" width="140" height="30" as="geometry" />
    </mxCell>
    <mxCell id="KfnBs1EBN3PCkMCJLKTF-14" value="MultiLanguage" style="text;strokeColor=none;fillColor=none;align=left;verticalAlign=middle;spacingLeft=4;spacingRight=4;overflow=hidden;points=[[0,0.5],[1,0.5]];portConstraint=eastwest;rotatable=0;whiteSpace=wrap;html=1;" vertex="1" parent="KfnBs1EBN3PCkMCJLKTF-8">
      <mxGeometry y="150" width="140" height="30" as="geometry" />
    </mxCell>
    <mxCell id="KfnBs1EBN3PCkMCJLKTF-17" value="Entities" style="swimlane;fontStyle=0;childLayout=stackLayout;horizontal=1;startSize=30;horizontalStack=0;resizeParent=1;resizeParentMax=0;resizeLast=0;collapsible=1;marginBottom=0;whiteSpace=wrap;html=1;" vertex="1" parent="KfnBs1EBN3PCkMCJLKTF-7">
      <mxGeometry x="20" y="250" width="140" height="120" as="geometry" />
    </mxCell>
    <mxCell id="KfnBs1EBN3PCkMCJLKTF-18" value="BaseEntity" style="text;strokeColor=none;fillColor=none;align=left;verticalAlign=middle;spacingLeft=4;spacingRight=4;overflow=hidden;points=[[0,0.5],[1,0.5]];portConstraint=eastwest;rotatable=0;whiteSpace=wrap;html=1;" vertex="1" parent="KfnBs1EBN3PCkMCJLKTF-17">
      <mxGeometry y="30" width="140" height="30" as="geometry" />
    </mxCell>
    <mxCell id="KfnBs1EBN3PCkMCJLKTF-19" value="Translation" style="text;strokeColor=none;fillColor=none;align=left;verticalAlign=middle;spacingLeft=4;spacingRight=4;overflow=hidden;points=[[0,0.5],[1,0.5]];portConstraint=eastwest;rotatable=0;whiteSpace=wrap;html=1;" vertex="1" parent="KfnBs1EBN3PCkMCJLKTF-17">
      <mxGeometry y="60" width="140" height="30" as="geometry" />
    </mxCell>
    <mxCell id="KfnBs1EBN3PCkMCJLKTF-20" value="ValueObject" style="text;strokeColor=none;fillColor=none;align=left;verticalAlign=middle;spacingLeft=4;spacingRight=4;overflow=hidden;points=[[0,0.5],[1,0.5]];portConstraint=eastwest;rotatable=0;whiteSpace=wrap;html=1;" vertex="1" parent="KfnBs1EBN3PCkMCJLKTF-17">
      <mxGeometry y="90" width="140" height="30" as="geometry" />
    </mxCell>
    <mxCell id="KfnBs1EBN3PCkMCJLKTF-34" value="Interceptors" style="swimlane;fontStyle=0;childLayout=stackLayout;horizontal=1;startSize=30;horizontalStack=0;resizeParent=1;resizeParentMax=0;resizeLast=0;collapsible=1;marginBottom=0;whiteSpace=wrap;html=1;" vertex="1" parent="KfnBs1EBN3PCkMCJLKTF-7">
      <mxGeometry x="170" y="60" width="180" height="150" as="geometry" />
    </mxCell>
    <mxCell id="KfnBs1EBN3PCkMCJLKTF-35" value="AuditSaveChanges" style="text;strokeColor=none;fillColor=none;align=left;verticalAlign=middle;spacingLeft=4;spacingRight=4;overflow=hidden;points=[[0,0.5],[1,0.5]];portConstraint=eastwest;rotatable=0;whiteSpace=wrap;html=1;" vertex="1" parent="KfnBs1EBN3PCkMCJLKTF-34">
      <mxGeometry y="30" width="180" height="30" as="geometry" />
    </mxCell>
    <mxCell id="KfnBs1EBN3PCkMCJLKTF-36" value="DataProtectionSaveChanges" style="text;strokeColor=none;fillColor=none;align=left;verticalAlign=middle;spacingLeft=4;spacingRight=4;overflow=hidden;points=[[0,0.5],[1,0.5]];portConstraint=eastwest;rotatable=0;whiteSpace=wrap;html=1;" vertex="1" parent="KfnBs1EBN3PCkMCJLKTF-34">
      <mxGeometry y="60" width="180" height="30" as="geometry" />
    </mxCell>
    <mxCell id="KfnBs1EBN3PCkMCJLKTF-37" value="DomainEventDispatch" style="text;strokeColor=none;fillColor=none;align=left;verticalAlign=middle;spacingLeft=4;spacingRight=4;overflow=hidden;points=[[0,0.5],[1,0.5]];portConstraint=eastwest;rotatable=0;whiteSpace=wrap;html=1;" vertex="1" parent="KfnBs1EBN3PCkMCJLKTF-34">
      <mxGeometry y="90" width="180" height="30" as="geometry" />
    </mxCell>
    <mxCell id="KfnBs1EBN3PCkMCJLKTF-38" value="MultiLanguageSaveChanges" style="text;strokeColor=none;fillColor=none;align=left;verticalAlign=middle;spacingLeft=4;spacingRight=4;overflow=hidden;points=[[0,0.5],[1,0.5]];portConstraint=eastwest;rotatable=0;whiteSpace=wrap;html=1;" vertex="1" parent="KfnBs1EBN3PCkMCJLKTF-34">
      <mxGeometry y="120" width="180" height="30" as="geometry" />
    </mxCell>
    <mxCell id="KfnBs1EBN3PCkMCJLKTF-40" value="CustomException" style="rounded=0;whiteSpace=wrap;html=1;" vertex="1" parent="KfnBs1EBN3PCkMCJLKTF-7">
      <mxGeometry x="170" y="220" width="180" height="40" as="geometry" />
    </mxCell>
    <mxCell id="KfnBs1EBN3PCkMCJLKTF-41" value="DomainEventDispatcher" style="rounded=0;whiteSpace=wrap;html=1;" vertex="1" parent="KfnBs1EBN3PCkMCJLKTF-7">
      <mxGeometry x="170" y="270" width="180" height="40" as="geometry" />
    </mxCell>
    <mxCell id="KfnBs1EBN3PCkMCJLKTF-42" value="Repository" style="rounded=0;whiteSpace=wrap;html=1;" vertex="1" parent="KfnBs1EBN3PCkMCJLKTF-7">
      <mxGeometry x="170" y="320" width="180" height="40" as="geometry" />
    </mxCell>
    <mxCell id="KfnBs1EBN3PCkMCJLKTF-79" style="edgeStyle=orthogonalEdgeStyle;rounded=0;orthogonalLoop=1;jettySize=auto;html=1;entryX=0.5;entryY=1;entryDx=0;entryDy=0;" edge="1" parent="1" source="KfnBs1EBN3PCkMCJLKTF-43" target="KfnBs1EBN3PCkMCJLKTF-51">
      <mxGeometry relative="1" as="geometry" />
    </mxCell>
    <mxCell id="KfnBs1EBN3PCkMCJLKTF-80" style="edgeStyle=orthogonalEdgeStyle;rounded=0;orthogonalLoop=1;jettySize=auto;html=1;entryX=0.5;entryY=1;entryDx=0;entryDy=0;" edge="1" parent="1" source="KfnBs1EBN3PCkMCJLKTF-43" target="KfnBs1EBN3PCkMCJLKTF-52">
      <mxGeometry relative="1" as="geometry" />
    </mxCell>
    <mxCell id="KfnBs1EBN3PCkMCJLKTF-43" value="ApiBase&lt;br&gt;&lt;br&gt;&lt;br&gt;&lt;br&gt;&lt;br&gt;&lt;br&gt;&lt;br&gt;&lt;br&gt;&lt;br&gt;&lt;br&gt;&lt;br&gt;&lt;br&gt;&lt;br&gt;&lt;div&gt;&lt;br/&gt;&lt;/div&gt;" style="shape=trapezoid;perimeter=trapezoidPerimeter;whiteSpace=wrap;html=1;fixedSize=1;" vertex="1" parent="1">
      <mxGeometry x="275" y="355" width="340" height="240" as="geometry" />
    </mxCell>
    <mxCell id="KfnBs1EBN3PCkMCJLKTF-45" value="BaseController" style="rounded=0;whiteSpace=wrap;html=1;" vertex="1" parent="1">
      <mxGeometry x="300" y="405" width="140" height="40" as="geometry" />
    </mxCell>
    <mxCell id="KfnBs1EBN3PCkMCJLKTF-46" value="Swagger" style="rounded=0;whiteSpace=wrap;html=1;" vertex="1" parent="1">
      <mxGeometry x="450" y="405" width="140" height="40" as="geometry" />
    </mxCell>
    <mxCell id="KfnBs1EBN3PCkMCJLKTF-47" value="Filters:&lt;br&gt;ResponseMasking&lt;br&gt;DataPrivacy" style="rounded=0;whiteSpace=wrap;html=1;" vertex="1" parent="1">
      <mxGeometry x="300" y="455" width="140" height="90" as="geometry" />
    </mxCell>
    <mxCell id="KfnBs1EBN3PCkMCJLKTF-48" value="Middlewares:&lt;br&gt;ExceptionHandling&lt;br&gt;RequestResponseLogging" style="rounded=0;whiteSpace=wrap;html=1;" vertex="1" parent="1">
      <mxGeometry x="450" y="455" width="140" height="90" as="geometry" />
    </mxCell>
    <mxCell id="KfnBs1EBN3PCkMCJLKTF-64" style="edgeStyle=orthogonalEdgeStyle;rounded=0;orthogonalLoop=1;jettySize=auto;html=1;entryX=0;entryY=0.5;entryDx=0;entryDy=0;" edge="1" parent="1" source="KfnBs1EBN3PCkMCJLKTF-51" target="KfnBs1EBN3PCkMCJLKTF-52">
      <mxGeometry relative="1" as="geometry" />
    </mxCell>
    <mxCell id="KfnBs1EBN3PCkMCJLKTF-67" style="edgeStyle=orthogonalEdgeStyle;rounded=0;orthogonalLoop=1;jettySize=auto;html=1;" edge="1" parent="1" source="KfnBs1EBN3PCkMCJLKTF-51" target="KfnBs1EBN3PCkMCJLKTF-63">
      <mxGeometry relative="1" as="geometry" />
    </mxCell>
    <mxCell id="KfnBs1EBN3PCkMCJLKTF-76" value="DistibutedCache" style="edgeLabel;html=1;align=center;verticalAlign=middle;resizable=0;points=[];" vertex="1" connectable="0" parent="KfnBs1EBN3PCkMCJLKTF-67">
      <mxGeometry x="0.3892" y="3" relative="1" as="geometry">
        <mxPoint as="offset" />
      </mxGeometry>
    </mxCell>
    <mxCell id="KfnBs1EBN3PCkMCJLKTF-51" value="CustomerAPI" style="swimlane;whiteSpace=wrap;html=1;" vertex="1" parent="1">
      <mxGeometry x="210" y="85" width="200" height="200" as="geometry" />
    </mxCell>
    <mxCell id="KfnBs1EBN3PCkMCJLKTF-52" value="DocumentManagementAPI" style="swimlane;whiteSpace=wrap;html=1;" vertex="1" parent="1">
      <mxGeometry x="490" y="85" width="200" height="200" as="geometry" />
    </mxCell>
    <mxCell id="KfnBs1EBN3PCkMCJLKTF-54" value="" style="image;aspect=fixed;html=1;points=[];align=center;fontSize=12;image=img/lib/azure2/databases/Azure_Database_PostgreSQL_Server.svg;" vertex="1" parent="1">
      <mxGeometry x="60" y="465" width="94" height="125.33" as="geometry" />
    </mxCell>
    <mxCell id="KfnBs1EBN3PCkMCJLKTF-55" value="Polly" style="text;html=1;align=center;verticalAlign=middle;resizable=0;points=[];autosize=1;strokeColor=none;fillColor=none;" vertex="1" parent="1">
      <mxGeometry x="425" y="155" width="50" height="30" as="geometry" />
    </mxCell>
    <mxCell id="KfnBs1EBN3PCkMCJLKTF-75" value="ElasticSearch" style="edgeStyle=orthogonalEdgeStyle;rounded=0;orthogonalLoop=1;jettySize=auto;html=1;" edge="1" parent="1" source="KfnBs1EBN3PCkMCJLKTF-59" target="KfnBs1EBN3PCkMCJLKTF-60">
      <mxGeometry relative="1" as="geometry" />
    </mxCell>
    <mxCell id="KfnBs1EBN3PCkMCJLKTF-59" value="" style="sketch=0;points=[[0,0,0],[0.25,0,0],[0.5,0,0],[0.75,0,0],[1,0,0],[0,1,0],[0.25,1,0],[0.5,1,0],[0.75,1,0],[1,1,0],[0,0.25,0],[0,0.5,0],[0,0.75,0],[1,0.25,0],[1,0.5,0],[1,0.75,0]];points=[[0,0,0],[0.25,0,0],[0.5,0,0],[0.75,0,0],[1,0,0],[0,1,0],[0.25,1,0],[0.5,1,0],[0.75,1,0],[1,1,0],[0,0.25,0],[0,0.5,0],[0,0.75,0],[1,0.25,0],[1,0.5,0],[1,0.75,0]];outlineConnect=0;fontColor=#232F3E;fillColor=#E7157B;strokeColor=#ffffff;dashed=0;verticalLabelPosition=bottom;verticalAlign=top;align=center;html=1;fontSize=12;fontStyle=0;aspect=fixed;shape=mxgraph.aws4.resourceIcon;resIcon=mxgraph.aws4.distro_for_opentelemetry;" vertex="1" parent="1">
      <mxGeometry x="740" y="405" width="78" height="78" as="geometry" />
    </mxCell>
    <mxCell id="KfnBs1EBN3PCkMCJLKTF-60" value="" style="points=[];aspect=fixed;html=1;align=center;shadow=0;dashed=0;fillColor=#FF6A00;strokeColor=none;shape=mxgraph.alibaba_cloud.elasticsearch;" vertex="1" parent="1">
      <mxGeometry x="742.33" y="594.95" width="73.34" height="80.05" as="geometry" />
    </mxCell>
    <mxCell id="KfnBs1EBN3PCkMCJLKTF-63" value="" style="image;sketch=0;aspect=fixed;html=1;points=[];align=center;fontSize=12;image=img/lib/mscae/Cache_Redis_Product.svg;" vertex="1" parent="1">
      <mxGeometry x="67.57" y="355" width="71.43" height="60" as="geometry" />
    </mxCell>
    <mxCell id="KfnBs1EBN3PCkMCJLKTF-65" value="httpRequest" style="text;html=1;align=center;verticalAlign=middle;resizable=0;points=[];autosize=1;strokeColor=none;fillColor=none;" vertex="1" parent="1">
      <mxGeometry x="405" y="183" width="90" height="30" as="geometry" />
    </mxCell>
    <mxCell id="KfnBs1EBN3PCkMCJLKTF-68" style="edgeStyle=orthogonalEdgeStyle;rounded=0;orthogonalLoop=1;jettySize=auto;html=1;entryX=-0.004;entryY=0.492;entryDx=0;entryDy=0;entryPerimeter=0;" edge="1" parent="1" source="KfnBs1EBN3PCkMCJLKTF-51" target="KfnBs1EBN3PCkMCJLKTF-54">
      <mxGeometry relative="1" as="geometry" />
    </mxCell>
    <mxCell id="KfnBs1EBN3PCkMCJLKTF-77" value="DB" style="edgeLabel;html=1;align=center;verticalAlign=middle;resizable=0;points=[];" vertex="1" connectable="0" parent="KfnBs1EBN3PCkMCJLKTF-68">
      <mxGeometry x="0.2881" relative="1" as="geometry">
        <mxPoint as="offset" />
      </mxGeometry>
    </mxCell>
    <mxCell id="KfnBs1EBN3PCkMCJLKTF-69" value="" style="points=[];aspect=fixed;html=1;align=center;shadow=0;dashed=0;fillColor=#FF6A00;strokeColor=none;shape=mxgraph.alibaba_cloud.kafka;" vertex="1" parent="1">
      <mxGeometry x="56.04" y="675" width="94.5" height="70" as="geometry" />
    </mxCell>
    <mxCell id="KfnBs1EBN3PCkMCJLKTF-70" style="edgeStyle=orthogonalEdgeStyle;rounded=0;orthogonalLoop=1;jettySize=auto;html=1;entryX=0.01;entryY=0.662;entryDx=0;entryDy=0;entryPerimeter=0;" edge="1" parent="1" source="KfnBs1EBN3PCkMCJLKTF-51" target="KfnBs1EBN3PCkMCJLKTF-69">
      <mxGeometry relative="1" as="geometry">
        <Array as="points">
          <mxPoint x="20" y="185" />
          <mxPoint x="20" y="721" />
        </Array>
      </mxGeometry>
    </mxCell>
    <mxCell id="KfnBs1EBN3PCkMCJLKTF-72" value="KafkaMessageBus" style="text;html=1;align=center;verticalAlign=middle;resizable=0;points=[];autosize=1;strokeColor=none;fillColor=none;" vertex="1" parent="1">
      <mxGeometry x="43.28" y="745" width="120" height="30" as="geometry" />
    </mxCell>
    <mxCell id="KfnBs1EBN3PCkMCJLKTF-73" style="edgeStyle=orthogonalEdgeStyle;rounded=0;orthogonalLoop=1;jettySize=auto;html=1;entryX=0.5;entryY=0;entryDx=0;entryDy=0;entryPerimeter=0;" edge="1" parent="1" source="KfnBs1EBN3PCkMCJLKTF-52" target="KfnBs1EBN3PCkMCJLKTF-59">
      <mxGeometry relative="1" as="geometry" />
    </mxCell>
    <mxCell id="KfnBs1EBN3PCkMCJLKTF-74" value="OpenTelemetry" style="edgeLabel;html=1;align=center;verticalAlign=middle;resizable=0;points=[];" vertex="1" connectable="0" parent="KfnBs1EBN3PCkMCJLKTF-73">
      <mxGeometry x="0.2598" y="-5" relative="1" as="geometry">
        <mxPoint as="offset" />
      </mxGeometry>
    </mxCell>
    <mxCell id="KfnBs1EBN3PCkMCJLKTF-81" value="" style="sketch=0;outlineConnect=0;fontColor=#232F3E;gradientColor=none;fillColor=#C925D1;strokeColor=none;dashed=0;verticalLabelPosition=bottom;verticalAlign=top;align=center;html=1;fontSize=12;fontStyle=0;aspect=fixed;pointerEvents=1;shape=mxgraph.aws4.rds_oracle_instance_alt;" vertex="1" parent="1">
      <mxGeometry x="163.28" y="525" width="52" height="52" as="geometry" />
    </mxCell>
  </root>
</mxGraphModel>
